<?xml version="1.0" encoding="UTF-8" standalone="no"?>
<!DOCTYPE svg PUBLIC "-//W3C//DTD SVG 1.1//EN" "http://www.w3.org/Graphics/SVG/1.1/DTD/svg11.dtd">
<svg width="100%" height="100%" viewBox="0 0 1524 1284" version="1.1" xmlns="http://www.w3.org/2000/svg" xmlns:xlink="http://www.w3.org/1999/xlink" xml:space="preserve" xmlns:serif="http://www.serif.com/" style="fill-rule:evenodd;clip-rule:evenodd;stroke-linejoin:round;stroke-miterlimit:2;">
    <g transform="matrix(1,0,0,1,-215.034431,-368.012007)">
        <g id="Background" transform="matrix(1.555664,0,0,1.555664,213,367)">
            <path d="M517.519,412.067C543.623,413.275 563.679,432.994 570.253,448.625C570.46,449.119 570.501,449.011 573.334,454.58C573.557,455.019 577.48,467.941 577.581,468.485C585.645,512.169 559.1,543.763 536.373,554.257C529.362,557.494 532.749,560.606 533.925,570.459C535.212,581.242 547.286,612.085 540.116,637.379C532.165,665.43 518.008,669.866 505.326,676.12C503.721,676.911 487.227,680.092 480.453,678.778C474.218,677.569 461.607,677.04 447.137,663.919C429.113,647.577 427.421,610.202 453.616,600.793C486.669,588.92 503.238,636.702 477.722,650.896C472.421,653.845 472.547,654.171 466.595,654.938C461.156,655.639 466.249,657.514 466.448,657.588C467,657.791 475.805,663.87 490.539,662.844C510.598,661.447 518.784,647.702 520.193,645.335C531.776,625.885 526.241,607.274 522.072,586.572C520.218,577.371 518.939,573.578 518.567,572.477C518.356,571.851 519.042,571.697 516.659,564.444C515.831,561.925 515.114,562.575 512.534,562.789C500.535,563.782 493.032,567.414 474.589,563.2C472.696,562.767 470.608,563.184 467.676,562.08C463.01,560.323 455.461,559.366 451.414,556.635C450.2,555.815 441.192,551.347 440.296,550.903C427.207,544.411 404.21,518.759 400.104,501.577C399.678,499.793 397.185,496.283 396.11,489.557C395.773,487.447 385.627,461.546 398.491,423.497C414.291,376.763 462.153,337.065 462.984,333.617C464.189,328.611 455.872,312.373 454.036,289.543C453.906,287.921 453.324,288.018 450.848,269.458C445.653,230.514 459.195,166.73 507.476,157.364C509.784,156.916 527.391,155.488 538.617,163.319C560.047,178.269 552.959,187.281 562.543,189.3C580.403,193.062 597.214,210.492 589.552,210.862C526.718,213.9 539.701,260.337 531.157,288.392C528.485,297.168 527.796,314.628 496.328,352.348C488.365,361.893 484.159,361.222 486.972,370.371C487.77,372.966 494.571,401.261 494.894,403.439C495.34,406.446 496.257,406.126 496.785,410.451C497.336,414.968 502.787,409.614 517.519,412.067ZM492.5,550.063C475.152,550.011 462.079,544.33 459.615,543.259C419.856,525.983 399.97,473.23 433.814,421.707C446.29,402.714 471.927,375.902 473.308,378.613C473.566,379.12 478.605,399.865 480.865,407.397C483.085,414.793 483.68,416.621 476.525,419.555C476.405,419.604 459.272,431.08 453.733,443.624C451.352,449.016 450.445,448.601 447.255,459.432C444.791,467.794 441.577,504.204 474.336,517.977C474.918,518.222 485.021,522.469 482.119,516.683C480.72,513.892 471.604,509.221 466.235,494.597C464.764,490.59 464.929,483.493 464.951,482.522C465.277,468.52 478.183,451.492 488.419,448.075C490.039,447.534 490.228,448.581 494.944,468.402C495.86,472.251 504.999,510.658 506.236,516.542C506.336,517.018 506.397,516.891 507.862,522.401C508.008,522.95 509.306,532.285 512.76,544.433C513.221,546.051 513.556,549.612 492.5,550.063ZM560.176,200.853C560.177,201.173 560.882,201.181 560.883,201.5C560.892,203.828 551.81,199.901 534.864,217.829C522.194,231.233 525.106,247.669 511.521,275.512C502.017,294.992 491.539,304.2 479.154,318.215C474.197,323.825 474.458,311.629 471.997,302.383C471.459,300.362 471.598,300.377 469.579,284.489C468.372,274.986 467.981,275.077 467.759,265.493C466.979,231.855 470.69,232.221 471.654,224.527C471.922,222.384 473.289,211.467 481.106,199.246C489.054,186.819 489.789,186.671 499.299,180.174C503.874,177.048 504.305,178.059 506.296,177.075C518.732,170.933 535.764,179.564 541.157,187.731C547.687,197.621 547.798,198.619 560.176,200.853ZM556.056,494.511C553.98,529.672 528.672,541.645 527.425,540.569C527.067,540.26 524.848,526.061 522.156,517.61C521.756,516.353 521.859,516.334 518.19,501.6C517.798,500.026 513.488,478.42 511.234,472.6C510.967,471.911 511.556,471.776 509.127,463.607C508.729,462.27 505.838,452.548 505.725,446.503C505.613,440.575 552.959,442.229 556.056,494.511Z" style="fill:rgb(253,253,253);fill-opacity:0.99;"/>
            <path d="M557.5,787.954C554.577,788.41 554.498,788.515 553.025,791.158C537.665,818.712 508.244,823.85 503.533,824.673C500.14,825.266 482.602,828.328 460.721,820.042C459.156,819.449 443.147,808.819 443.147,808.819C443.147,808.819 437.708,803.928 432.685,798.332C430.251,795.621 427.344,788.156 425.587,788.059C423.839,787.963 15.036,788.04 13.5,788.019C7.784,787.944 7.32,788.791 2.924,785.055C-3.797,779.343 12.502,750.836 14.306,742.457C14.723,740.523 101.367,531.298 117.551,491.528C119.767,486.081 125.65,483.969 126.551,483.645C133.966,480.983 139.71,490.525 135.657,496.596C135.46,496.891 36.935,737.924 36.364,739.436C31.152,753.238 23.627,768.217 25.644,769.089C25.663,769.098 431.852,768.958 436.485,770.532C445.252,773.509 445.419,808.6 497.487,806.226C497.633,806.22 522.273,804.076 534.678,784.605C540.955,774.753 540.319,769.422 550.494,769.187C551.284,769.168 788.14,769.223 949.5,769.177C954.537,769.176 957.713,770.082 955.794,765.385C951.22,754.196 845.186,494.967 844.624,493.458C842.131,486.763 857.048,472.116 865.951,497.331C866.489,498.854 980.544,774.133 980.684,778.495C980.983,787.846 971.614,787.935 970.503,787.945C963.287,788.014 574.806,788.089 557.5,787.954Z" style="fill:rgb(253,254,254);fill-opacity:0.99;"/>
            <path d="M250.511,639.058C277.739,639.564 323.275,650.797 343.386,658.799C344.724,659.331 344.844,658.949 360.341,664.83C367.26,667.455 380.59,674.008 382.325,674.861C435.761,701.131 473.85,738.761 476.887,755.431C476.936,755.7 479.193,760.749 478.61,764.519C477.639,770.799 467.394,758.566 462.229,753.825C441.467,734.771 441.081,735.273 433.319,728.735C398.351,699.278 344.799,677.412 331.461,674.687C325.07,673.381 268.047,648.655 169.524,657.732C111.647,663.065 101.836,676.42 97.539,663.485C95.572,657.564 98.985,652.832 106.591,633.544C107.354,631.61 107.57,631.713 116.749,609.616C117.576,607.627 117.494,607.619 126.583,584.541C126.78,584.04 128.574,579.485 129.243,578.36C129.835,577.362 141.992,547.059 143.086,544.331C160.641,500.572 176.057,464.698 178.51,457.504C181.684,448.198 200.044,443.191 197.739,460.549C197.726,460.648 146.945,584.884 144.425,591.465C137.102,610.589 136.423,610.255 129.272,629.392C128.933,630.298 128.49,630.02 124.452,640.478C123.514,642.907 120.741,647.308 124.398,646.016C143.325,639.332 221.744,633.79 250.511,639.058Z" style="fill:rgb(253,253,253);fill-opacity:0.99;"/>
            <path d="M731.489,639.057C735.71,638.313 738.902,638.049 739.55,637.995C772.961,635.232 818.55,638.482 844.541,643.264C855.647,645.308 855.482,645.714 856.443,645.873C861.265,646.67 857.593,642.804 835.618,588.44C825.557,563.551 825.363,563.664 824.565,561.474C824.121,560.259 820.108,549.253 818.8,546.364C817.157,542.735 814.3,536.425 799.917,500.288C784.933,462.638 784.044,462.985 783.319,459.54C780.432,445.824 799.396,447.167 802.555,456.48C802.97,457.706 805.422,464.935 808.259,471.615C809.241,473.926 819.002,496.908 820.358,500.569C826.554,517.294 827.928,518.424 829.137,521.672C837.093,543.038 838.048,542.577 838.537,544.49C839.947,550.008 846.839,565.092 847.354,566.565C851.289,577.812 852.418,577.277 856.428,588.529C863.457,608.254 864.56,607.752 865.322,610.563C867.346,618.036 872.747,627.887 875.443,635.524C879.403,646.743 890.996,666.131 878.553,668.735C872.185,670.067 844.788,660.662 826.457,658.937C808.902,657.285 808.986,657.061 807.462,656.961C772.518,654.673 772.569,655.585 737.52,656.855C730.603,657.105 725.534,658.58 722.515,658.73C692.273,660.242 624.407,678.106 580.169,706.046C536.98,733.323 530.537,743.43 512.627,758.648C507.34,763.14 503.152,769.569 502.21,765.612C500.468,758.295 507.182,746.697 508.031,745.23C509.284,743.065 514.723,733.671 528.728,721.796C539.219,712.9 539.329,713.039 540.166,712.186C547.573,704.634 570.303,690.898 571.328,690.225C584.801,681.384 585.237,682.137 586.376,681.326C592.574,676.916 624.988,663.081 626.518,662.542C642.245,656.992 642.266,657.311 643.609,656.784C664.005,648.77 707.034,639.474 731.489,639.057Z" style="fill:rgb(253,253,253);fill-opacity:0.99;"/>
            <path d="M211.041,327.5C210.526,323.211 209.894,317.938 210.138,273.499C210.175,266.76 213.251,268.835 216.602,267.827C231.707,263.28 233.388,265.47 234.064,264.037C234.851,262.369 233.531,262.43 213.35,253.911C114.142,212.03 87.848,186.099 63.572,161.43C40.255,137.736 8.632,80.68 24.5,76.501C31.996,74.527 32.73,85.562 34.676,88.386C39.795,95.813 55.946,153.794 156.697,209.105C158.266,209.966 174.954,219.127 176.383,219.73C190.456,225.664 190.148,226.261 191.373,226.765C200.545,230.538 200.606,230.363 201.374,230.754C213.113,236.733 213.293,236.317 214.291,236.876C233.081,247.401 293.161,265.507 336.578,308.421C351.976,323.641 358.516,334.228 358.644,334.384C361.865,338.326 369.495,352.236 369.624,352.414C371.642,355.184 393.025,399.367 383.52,395.462C382.132,394.892 364.502,359.349 361.201,355.782C353.66,347.631 349.897,335.545 321.427,312.598C305.982,300.148 305.475,300.962 304.253,299.757C300.887,296.437 262.88,276.264 260.669,275.154C259.567,274.601 257.574,273.601 245.397,277.158C231.96,281.083 231.573,280.444 229.371,281.092C221.163,283.509 221.01,282.971 220.364,283.337C218.667,284.298 220.589,350.02 219.583,354.52C216.71,367.362 186.96,383.733 180.6,360.47C178.774,353.792 186.585,343.912 189.44,342.395C197.539,338.088 197.32,337.013 206.504,337.047C213.055,337.07 211.024,334.056 211.041,327.5Z" style="fill:rgb(253,253,253);fill-opacity:0.99;"/>
            <path d="M402.954,353.449C406.954,367.242 401.637,366.623 400.771,366.075C391.582,360.261 396.707,320.238 334.139,262.906C316.635,246.866 297.052,236.175 292.35,232.707C288.707,230.02 281.507,226.878 280.526,226.45C278.4,225.522 274.868,222.617 267.473,219.564C264.53,218.349 264.881,217.641 231.729,202.062C231.54,201.973 178.035,175.345 158.752,163.137C136.797,149.238 75.357,109.496 47.634,44.432C37.192,19.927 37.143,11.486 37.125,8.49C37.084,1.497 49.021,-5.777 51.897,10.436C52.183,12.052 52.592,11.908 59.169,29.627C59.584,30.745 62.004,37.266 66.004,42.875C66.522,43.601 65.293,44.162 71.049,52.821C71.503,53.503 71.366,53.46 76.135,61.708C86.869,80.271 113.425,107.155 120.423,112.607C120.535,112.694 131.367,121.902 132.319,122.711C174.529,158.591 276.906,202.801 287.593,210.368C288.697,211.15 289.047,210.502 302.202,218.889C318.429,229.233 318.346,229.226 319.753,230.12C320.867,230.828 327.914,235.307 332.807,240.205C334.088,241.487 334.841,240.578 349.661,255.34C386.683,292.216 393.962,322.825 399.387,336.542C401.338,341.474 400.043,341.8 402.218,347.611C402.383,348.052 402.273,348.043 402.954,353.449Z" style="fill:rgb(253,253,253);fill-opacity:0.99;"/>
            <path d="M942.932,15.558C940.682,34.959 918.434,77.047 909.784,85.781C904.538,91.078 887.062,123.057 819.162,165.038C808.309,171.748 779.177,187.004 775.663,188.844C756.582,198.837 700.359,224.245 684.631,235.718C679.358,239.565 678.938,238.797 673.648,242.734C670.083,245.387 659.007,250.848 637.704,271.732C582.401,325.947 586.254,377.546 576.904,364.221C574.506,360.804 583.111,332.978 585.564,326.528C610.709,260.384 658.159,233.679 668.438,225.417C674.906,220.217 704.37,204.372 705.589,203.666C714.411,198.56 796.801,160.186 818.338,144.243C830.495,135.243 854.871,124.424 892.301,80.333C893.163,79.318 901.564,67.522 902.362,66.403C906.466,60.639 917.698,39.222 918.958,36.818C926.671,22.11 929.602,4.023 933.737,1.967C935.556,1.062 947.565,-0.617 942.932,15.558Z" style="fill:rgb(253,253,253);fill-opacity:0.99;"/>
            <path d="M698.463,515.054C702.244,514.389 702.187,514.185 703.511,514.39C705.736,514.734 706.417,515.613 707.183,513.429C707.475,512.6 707.145,455.54 707.116,450.506C707.089,445.817 704.355,448.928 690.47,453.424C673.625,458.878 673.885,459.39 655.678,468.83C630.352,481.961 611.88,503.233 610.312,504.137C608.55,505.154 604.259,503.099 611.421,493.442C615.398,488.08 615.792,488.461 618.194,485.272C628.384,471.739 656.7,453.333 662.506,450.51C675.106,444.383 675.188,444.581 676.282,444.047C687.778,438.434 687.849,438.792 699.662,433.99C710.791,429.467 804.245,404.056 811.385,399.322C817.721,395.122 830.177,394.122 857.832,374.911C869.255,366.976 868.854,366.618 869.851,365.951C882.162,357.716 881.657,354.111 887.465,356.564C889.77,357.537 895.707,362.123 871.434,383.424C864.507,389.502 853.212,396.392 852.79,396.805C850.185,399.358 849.762,398.643 844.191,402.072C843.282,402.631 836.064,407.073 832.48,408.461C831.679,408.771 823.849,411.804 822.596,412.649C819.89,414.471 800.088,421.524 799.628,421.772C793.662,424.981 727.122,442.392 724.561,442.852C714.243,444.708 726.188,453.072 735.284,461.72C749.864,475.582 751.63,492.822 740.728,505.718C733.799,513.914 740.06,501.408 740.136,494.495C740.226,486.271 739.188,476.679 719.486,466.531C715.29,464.37 718.469,469.127 717.85,525.503C717.827,527.547 717.689,540.099 703.611,546.72C690.928,552.686 685.099,548.668 682.276,546.863C670.242,539.174 681.201,516.322 698.463,515.054Z" style="fill:rgb(252,252,252);fill-opacity:0.99;"/>
            <path d="M273.067,455.505C272.804,449.93 272.808,449.966 272.783,449.484C272.555,445.072 265.904,445.636 262.554,444.321C241.266,435.967 140.423,421.774 98.064,371.845C85.717,357.291 97.197,354.006 100.722,357.25C110.996,366.705 123.98,375.521 126.107,376.965C157.232,398.099 190.166,407.064 223.534,416.358C256.897,425.651 256.593,426.572 259.556,427.085C267.84,428.521 326.811,447.448 355.657,477.349C365.173,487.213 364.969,487.343 365.802,488.191C375.914,498.49 375.56,506.813 370.808,503.107C359.208,494.061 361.185,491.754 339.706,477.162C330.796,471.11 330.478,471.743 329.72,471.203C318.085,462.911 286.517,451.179 285.422,450.867C283.123,450.211 283.877,459.196 283.875,461.502C283.839,520.499 284.456,520.792 281.126,527.31C277.754,533.911 265.839,540.923 261.531,541.666C234.869,546.259 234.385,523.097 240.426,516.439C253.756,501.746 264.267,504.216 271.475,504.16C273.496,504.144 273.231,502.893 273.067,455.505Z" style="fill:rgb(253,253,253);fill-opacity:0.99;"/>
            <path d="M762.497,705.951C691.401,705.639 659.028,717.701 640.54,721.782C611.51,728.189 549.945,755.492 569.345,740.316C584.525,728.441 602.988,721.551 603.364,721.295C608.475,717.81 657.756,701.688 682.445,696.197C705.057,691.167 728.331,688.096 751.494,688.346C780.846,688.664 806.237,689.376 858.557,698.102C869.017,699.846 892.473,706.419 895.573,707.116C909.368,710.217 909.049,719.453 906.442,722.444C900.726,729.002 899.23,726.398 881.464,722.686C863.7,718.975 844.022,714.312 834.432,712.867C818.844,710.519 802.438,706.126 762.497,705.951Z" style="fill:rgb(253,253,253);fill-opacity:0.99;"/>
            <path d="M223.501,705.954C147.141,706.449 100.134,721.727 86.405,726.186C78.465,728.765 65.596,716.089 77.863,709.944C98.388,699.662 136.584,685.901 241.525,689.091C353.678,692.501 415.101,742.251 415.429,743.53C418.438,755.265 350.069,705.135 223.501,705.954Z" style="fill:rgb(253,253,253);fill-opacity:0.99;"/>
            <path d="M718.421,373.089C783.294,346.429 868.296,331.347 923.152,267.213C931.161,257.851 937.851,266.158 935.288,271.399C927.854,286.604 905.612,306.035 902.627,308.642C869.701,337.407 812.288,357.988 790.595,364.832C789.051,365.319 775.201,369.689 771.379,371.174C764.015,374.037 756.724,375.657 755.383,376.169C722.211,388.846 706.949,388.759 664.266,416.123C646.345,427.612 641.587,433.94 639.587,435.609C627.88,445.384 625.408,450.186 620.253,455.257C611.882,463.491 615.409,452.942 615.584,452.546C615.987,451.632 625.031,438.894 625.928,437.876C647.033,413.952 648.317,415.293 650.1,413.18C660.229,401.177 708.92,375.246 718.421,373.089Z" style="fill:rgb(252,252,252);fill-opacity:0.99;"/>
            <path d="M820.957,270.494C825.287,301.844 810.112,307.151 800.476,310.43C798.791,311.003 789.4,311.739 784.744,308.143C779.185,303.851 772.496,288.541 796.327,276.139C801.874,273.252 810.79,275.379 811.096,272.466C811.732,266.422 810.04,266.492 810.13,196.497C810.136,192.149 809.454,191.15 813.572,189.708C814.766,189.29 819.159,190.194 819.672,191.388C820.97,194.41 819.014,202.559 831.475,203.958C836.367,204.508 901.009,167.123 934.168,112.305C942.866,97.926 947.726,85.05 948.661,82.574C950.826,76.837 963.065,69.857 960.684,88.536C960.38,90.914 955.649,103.093 955.164,104.341C941.322,139.972 905.048,175.791 893.709,183.788C889.12,187.024 880.737,193.767 879.628,194.659C876.342,197.302 846.98,218.681 835.545,219.82C823.204,221.048 820.758,215.817 820.691,219.524C820.407,235.309 821.202,240.708 820.957,270.494Z" style="fill:rgb(253,253,253);fill-opacity:0.99;"/>
            <path d="M20.124,171.51C20.139,171.212 20.28,168.329 20.88,167.862C29.915,160.826 33.693,175.188 38.631,181.4C39.408,182.377 46.51,191.31 48.123,193.79C53.273,201.704 65.48,212.389 66.925,214.094C70.305,218.084 78.473,224.384 79.593,225.394C105.811,249.032 154.963,272.439 158.372,273.768C171.134,278.739 176.701,282.252 189.33,286.88C203.25,291.981 198.397,308.843 190.665,305.134C188.076,303.892 138.124,285.766 103.827,264.051C88.273,254.204 88.666,253.66 87.297,252.836C65.131,239.514 23.835,195.95 20.124,171.51Z" style="fill:rgb(253,253,253);fill-opacity:0.99;"/>
            <path d="M760.584,256.885C750.046,261.333 750.304,261.718 739.681,265.999C734.821,267.958 695.201,286.804 684.645,294.73C678.624,299.251 635.598,321.18 606.143,380.327C602.227,388.192 597.25,401.36 594.641,396.435C593.109,393.543 608.324,343.799 644.462,308.462C664.422,288.944 690.183,269.979 744.614,246.741C745.16,246.508 753.805,242.108 754.602,241.702C755.659,241.165 756,242.114 768.309,236.07C777.967,231.327 777.958,231.393 778.749,230.9C779.627,230.352 779.825,230.831 790.666,225.865C797.391,222.785 801.868,240.452 789.483,244.459C784.658,246.02 766.593,255.001 760.584,256.885Z" style="fill:rgb(253,253,253);fill-opacity:0.99;"/>
            <path d="M960.93,170.493C959.037,190.834 927.792,225.002 921.729,229.792C920.306,230.915 920.647,231.27 904.641,244.666C892.668,254.687 872.482,267.199 858.364,274.214C855.051,275.861 837.587,287.843 837.187,274.526C836.992,268.044 835.941,266.826 841.701,263.865C889.237,239.427 897.256,227.835 908.189,220.066C911.419,217.771 923.312,204.936 924.576,203.571C935.29,192.009 935.419,192.162 943.958,178.843C951.698,166.771 953.159,166.486 954.446,166.235C960.213,165.111 960.848,169.878 960.93,170.493Z" style="fill:rgb(253,253,253);fill-opacity:0.99;"/>
            <path d="M764.909,306.491C764.226,319.193 755.842,316.145 738.66,324.864C737.001,325.706 736.74,324.958 717.403,334.294C716.721,334.624 716.693,334.532 708.683,337.971C702.131,340.784 668.028,359.799 658.627,369.628C657.469,370.839 645.458,380.766 638.938,388.861C635.103,393.624 634.524,393.027 631.071,398.17C629.856,399.978 626.514,402.521 616.11,419.221C612.196,425.503 610.695,427.444 608.842,425.213C606.369,422.235 624.438,384.867 654.455,357.45C672.226,341.218 687.18,332.841 690.284,331.102C699.387,326.003 709.025,319.459 738.627,307.776C747.024,304.462 746.83,304.23 755.348,301.014C759.851,299.315 760.303,298.792 764.075,301.934C764.642,302.406 764.414,302.457 764.909,306.491Z" style="fill:rgb(253,253,253);fill-opacity:0.99;"/>
            <path d="M121.676,318.267C122.916,318.781 149.229,332.078 153.537,333.379C154.464,333.659 154.379,333.845 164.57,338.352C169.336,340.46 169.245,358.751 159.336,353.885C155.741,352.119 90.51,329.625 56.36,286.602C45.143,272.47 45.522,269.276 45.728,267.542C45.793,266.996 49.132,256.387 59.222,267.742C79.466,290.524 80.123,292.194 121.676,318.267Z" style="fill:rgb(253,253,253);fill-opacity:0.99;"/>
            <path d="M234.046,312.483C234.094,311.848 233.466,308.567 236.473,307.437C238.322,306.742 240.218,307.306 240.529,307.399C241.496,307.687 248.16,309.669 252.341,311.826C267.44,319.615 297.011,330.384 326.523,357.476C347.038,376.308 354.988,390.485 355.712,391.328C360.775,397.232 374.807,421.701 373.091,425.313C369.738,432.369 363.242,409.159 335.544,381.456C304.648,350.553 271.741,338.629 267.237,335.987C260.761,332.189 253.837,329.66 252.626,329.218C235.275,322.882 233.783,321.86 234.046,312.483Z" style="fill:rgb(252,253,252);fill-opacity:0.99;"/>
            <path d="M238.491,365.074C247.738,365.716 289.637,384.302 294.331,387.723C298.101,390.47 303.889,393.563 304.747,394.021C316.801,400.462 324.342,407.731 326.706,409.153C330.701,411.556 329.847,412.5 333.737,415.166C344.825,422.766 367.267,451.68 366.824,456.553C366.28,462.535 356.109,449.48 353.373,446.621C327.152,419.227 308.802,411.087 300.26,405.921C293.649,401.923 293.375,402.464 292.832,402.072C285.317,396.648 258.854,387.992 236.333,379.971C225.058,375.955 233.144,366.119 238.491,365.074Z" style="fill:rgb(252,253,253);fill-opacity:0.98;"/>
        </g>
    </g>
</svg>
