<svg xmlns="http://www.w3.org/2000/svg" width="1080" height="1080" xml:space="preserve"><path style="stroke:none;stroke-width:1;stroke-dasharray:none;stroke-linecap:butt;stroke-dashoffset:0;stroke-linejoin:miter;stroke-miterlimit:4;fill:#f6f5f2;fill-rule:nonzero;opacity:1" vector-effect="non-scaling-stroke" transform="matrix(.73 0 0 .67 90.69 94.09)" d="M0 0h1024v1024H0V0z"/><path style="stroke:none;stroke-width:1;stroke-dasharray:none;stroke-linecap:butt;stroke-dashoffset:0;stroke-linejoin:miter;stroke-miterlimit:4;fill:#020202;fill-rule:nonzero;opacity:1" vector-effect="non-scaling-stroke" transform="translate(168.42 52.7)" d="M0 0c3.263.007 6.525-.004 9.788-.012 5.706-.013 11.411-.014 17.117-.008 8.485.01 16.97.001 25.455-.01 15.158-.02 30.316-.022 45.474-.017a50993.88 50993.88 0 0 0 53.199-.008 100382.552 100382.552 0 0 1 100.598.002c29.77.01 59.539.001 89.308-.022a101249.557 101249.557 0 0 1 113.784-.03c13.255.003 26.509-.005 39.763-.018 15.078-.015 30.156-.016 45.234.002 8.43.01 16.86.008 25.29-.01 5.642-.01 11.282-.006 16.923.01 3.207.009 6.415.011 9.622-.004 18.43-.082 34.685 1.419 51.425 9.517l2.793 1.336c7.22 3.686 13.183 8.31 19.207 13.664l2.153 1.898c11.327 10.632 18.978 24.677 23.66 39.352l.628 1.968c2.378 7.897 2.707 15.656 2.69 23.863l.007 3.008c.006 3.33.004 6.658.003 9.987l.009 7.23c.007 5.93.01 11.86.01 17.79 0 7.106.008 14.21.014 21.316.016 17.17.022 34.34.027 51.51.002 8.124.006 16.25.01 24.374a247406.107 247406.107 0 0 1 .03 107.115c.003 28.222.02 56.444.043 84.666a114172.817 114172.817 0 0 1 .04 99.38v2.445c.001 12.977.012 25.954.027 38.932.014 13.047.017 26.095.01 39.142-.005 7.747-.001 15.493.014 23.24.01 5.181.009 10.363-.001 15.544-.005 2.948-.004 5.895.007 8.843.089 25.587-4.642 47.142-21.38 67.397l-1.169 1.574c-8.604 11.338-22.678 19.718-35.77 24.738l-1.803.698c-2.068.744-4.15 1.37-6.259 1.99l-2.587.772c-11.637 2.974-23.343 2.653-35.282 2.613-3.258-.008-6.516.002-9.774.01-5.7.01-11.399.01-17.098.003a10494.8 10494.8 0 0 0-25.427.003c-15.141.016-30.282.015-45.423.006-13.251-.008-26.503-.01-39.754-.006h-2.666l-10.715.004c-33.491.009-66.983 0-100.474-.016-29.735-.014-59.47-.013-89.206.002a132294.875 132294.875 0 0 1-113.641.01c-13.24-.004-26.48 0-39.72.007-15.06.01-30.12.007-45.18-.01-8.422-.008-16.844-.009-25.265.003-5.634.006-11.267.002-16.901-.01-3.204-.008-6.409-.01-9.613 0-31.773.1-31.773.1-46.024-6.141l-1.844-.776c-23.541-10.196-40.65-27.834-50.406-51.474-1.741-4.898-2.982-9.906-4-15l-.505-2.195c-2.197-10.851-1.772-21.835-1.749-32.856a9553.67 9553.67 0 0 0-.01-7.075c-.006-5.116-.006-10.232-.001-15.348.007-7.608.004-15.217-.003-22.825-.01-13.591-.01-27.183-.003-40.774.005-11.897.006-23.794.004-35.691v-2.393l-.003-9.62c-.006-30.07 0-60.14.01-90.209.01-26.694.009-53.388 0-80.082a159923.098 159923.098 0 0 1-.007-99.634v-2.388c.002-11.885 0-23.77-.005-35.653-.006-13.522-.005-27.043.006-40.565.006-7.56.006-15.119-.001-22.679-.005-5.059-.002-10.118.007-15.177.005-2.876.005-5.752 0-8.628-.062-30.987-.062-30.987 4.385-44.27l.64-1.964c4.005-11.663 10.16-21.71 18.235-30.974l1.485-1.883C-60.792 4.774-29.575-.091 0 0zm-77.02 159.392-.25 250.5-.11 79.134c-.014 23.382-.014 23.382-.022 46.764a18776.64 18776.64 0 0 1-.044 33.334c-.024 11.34-.033 22.68-.028 34.02.003 6.15 0 12.3-.023 18.45a2803.4 2803.4 0 0 0-.006 16.704 845.09 845.09 0 0 1-.016 6.02c-.125 21.112 3.341 39.199 18.242 54.962 7.66 7.74 16.059 12.392 26.257 16.112l2.922 1.074c6.873 2.067 13.614 2.07 20.734 2.06l3.233.007c2.96.005 5.92.007 8.88.006 3.22 0 6.441.006 9.662.01 6.388.01 12.776.014 19.163.016 7.652.003 15.304.012 22.955.02 18.494.022 36.988.032 55.482.041l26.253.015a257641.282 257641.282 0 0 0 112.53.046h2.842c30.397.008 60.795.032 91.192.064a99935.429 99935.429 0 0 0 109.666.06c13.977.002 27.953.017 41.93.038 14.054.02 28.11.026 42.164.016 8.344-.005 16.688 0 25.032.023 5.582.013 11.163.012 16.745 0 3.176-.008 6.35-.008 9.525.009 24.704.125 43.475-3.209 62.207-20.455 4.35-4.442 7.363-9.316 10.196-14.8.325-.62.651-1.238.987-1.875 6.276-12.848 6.126-26.07 6.061-40.035.001-2.08.004-4.161.008-6.242.005-4.513.001-9.025-.011-13.538-.019-6.797-.02-13.593-.017-20.39.004-11.394-.006-22.787-.024-34.18-.025-15.405-.03-30.81-.033-46.215-.016-37.03-.058-74.059-.096-111.088l-.188-250.687h-744z"/><path style="stroke:none;stroke-width:1;stroke-dasharray:none;stroke-linecap:butt;stroke-dashoffset:0;stroke-linejoin:miter;stroke-miterlimit:4;fill:#020202;fill-rule:nonzero;opacity:1" vector-effect="non-scaling-stroke" transform="translate(176.5 271.95)" d="m0 0 2.58-.019 2.815-.004 2.923-.013c3.153-.01 6.307-.01 9.46-.006l3.25.002c54.405.083 126.451 3.99 169.875 41.185 4.043-.62 7-2.823 10.312-5.062C247.89 5.522 304.055.019 358.435-.15c2.587-.009 5.174-.03 7.76-.061 3.182-.039 6.362-.058 9.543-.062 1.77-.007 3.538-.034 5.308-.06 6.248.016 10.159.182 14.857 4.478 3.258 4.769 3.383 8.82 3.187 14.375l-.04 2.23a429.07 429.07 0 0 1-.147 5.395l1.94-.047c2.916-.063 5.831-.102 8.747-.14l3.053-.076c9.214-.092 9.214-.092 13.26 3.263l1.687 1.375c3.028 3.749 3.564 7.61 3.573 12.31l.021 3.456-.007 3.783a2794.466 2794.466 0 0 1 .031 15.1c.002 3.98.015 7.961.026 11.941.023 8.703.031 17.405.036 26.108.004 5.434.01 10.868.017 16.301.02 15.046.036 30.092.04 45.138v2.917a2249532.537 2249532.537 0 0 1 .001 8.791v2.94c.004 15.72.031 31.441.069 47.162.038 16.142.057 32.283.058 48.424 0 9.063.009 18.125.038 27.187.024 7.716.031 15.432.016 23.148-.007 3.936-.006 7.872.017 11.809.02 3.605.018 7.21-.003 10.816-.004 1.302.001 2.604.016 3.906.094 9.205-1.213 14.606-7.463 21.363-3.292 1.553-6.345 1.448-9.943 1.424l-2.386.02c-2.642.019-5.282.016-7.923.014a3663.496 3663.496 0 0 1-21.097.074c-5.37.009-10.741.035-16.112.06-10.171.043-20.342.072-30.514.095-11.579.027-23.158.07-34.737.116-23.82.093-47.64.165-71.461.222l-2.058 2.1-2.712 2.746-1.352 1.382c-3.284 3.313-6.519 5.828-10.753 7.835-.542.28-1.083.56-1.64.85-10.154 5.138-23.855 4.53-34.61 1.462-7.672-2.78-13.437-6.788-19.137-12.578l-2.135-2.161-1.603-1.636-2.985-.004c-23.952-.037-47.905-.096-71.857-.18-11.583-.04-23.166-.072-34.75-.087-10.094-.013-20.189-.04-30.283-.083-5.347-.023-10.693-.039-16.039-.038-5.03.001-10.06-.017-15.092-.049-1.847-.008-3.695-.01-5.542-.005-2.521.007-5.04-.01-7.562-.035l-2.22.024c-3.498-.06-5.373-.374-8.476-2.138-6.147-6.737-5.624-13.908-5.575-22.582a1872.9 1872.9 0 0 1-.011-15.108c.006-3.983-.004-7.966-.012-11.95a8279.75 8279.75 0 0 1-.002-23.394c.007-6.338.008-12.675.004-19.013l-.001-2.733-.003-5.498c-.008-17.182.001-34.363.017-51.545.014-14.744.012-29.488-.002-44.231a34808.705 34808.705 0 0 1-.01-56.843v-2.721c.003-6.331-.001-12.662-.008-18.992-.008-7.714-.006-15.428.01-23.142.008-3.936.01-7.871 0-11.807-.008-3.603-.003-7.206.013-10.809.003-1.303.001-2.607-.006-3.91-.039-7.594.142-12.562 4.58-18.795 4.105-3.876 8.034-3.858 13.515-3.771l3.172.127 3.242.068c2.63.059 5.255.14 7.883.244l-.106-3.07-.082-4.055-.076-2.015c-.07-4.808.716-7.76 3.264-11.86C-7.382 1.792-4.982.025 0 0z"/><path style="stroke:none;stroke-width:1;stroke-dasharray:none;stroke-linecap:butt;stroke-dashoffset:0;stroke-linejoin:miter;stroke-miterlimit:4;fill:#f7f5f3;fill-rule:nonzero;opacity:1" vector-effect="non-scaling-stroke" transform="translate(156.74 79.73)" d="m0 0 3.274-.013c2.974-.01 5.948-.005 8.922.005 3.245.008 6.49-.002 9.736-.01 5.68-.01 11.358-.01 17.038-.002 8.446.01 16.891.005 25.337-.004C79.393-.04 94.479-.04 109.565-.03c13.203.008 26.406.01 39.609.006h2.655L162.5-.028c33.36-.01 66.72-.001 100.08.015 29.628.014 59.255.013 88.883-.002a131278.95 131278.95 0 0 1 110.546-.01h2.65c13.192.004 26.385 0 39.577-.007 15.004-.009 30.009-.007 45.013.01 8.393.008 16.786.009 25.18-.002 5.611-.007 11.222-.003 16.833.01 3.194.007 6.388.01 9.582-.001 29.526-.093 29.526-.093 42.002 6.579l1.752.91c16.259 8.75 26.893 22.825 32.334 40.211 4.927 18.253 1.726 37.786 1.726 56.692h-744c0-62.601 0-62.601 14-81l1.141-1.645C-38.861 6.373-18.253-.131 0 0z"/><path style="stroke:none;stroke-width:1;stroke-dasharray:none;stroke-linecap:butt;stroke-dashoffset:0;stroke-linejoin:miter;stroke-miterlimit:4;fill:#f6f4f2;fill-rule:nonzero;opacity:1" vector-effect="non-scaling-stroke" transform="translate(549.4 298.1)" d="M0 0c0 280 0 280-1 281l-1.88.049c-86.457.872-86.457.872-162.722 36.771C-167 319-167 319-168 319v-68l-4-2c-2.358-2.778-4.173-5.853-6-9l-1.05-1.809c-3.464-7.37-3.088-17.348-1.259-25.132 2.504-6.694 6.288-14.045 12.309-18.059l1-154c10.568-9.394 10.568-9.394 16.875-13l2.194-1.265C-117.103 9.415-81.76 4.025-47 1l2.397-.218C-29.768-.524-14.88 0 0 0z"/><path style="stroke:none;stroke-width:1;stroke-dasharray:none;stroke-linecap:butt;stroke-dashoffset:0;stroke-linejoin:miter;stroke-miterlimit:4;fill:#f6f5f2;fill-rule:nonzero;opacity:1" vector-effect="non-scaling-stroke" transform="translate(188.4 299.1)" d="M0 0c50.77 0 103.962 2.478 149.563 27.5l1.838 1.003C157.197 31.83 161.608 35.687 167 40v277l-11-6c-11.333-6.063-22.824-10.888-35-15l-1.999-.69c-9.839-3.35-19.944-5.434-30.126-7.435l-1.863-.371C57.963 281.769 29.785 281.19 0 280V0z"/><path style="stroke:none;stroke-width:1;stroke-dasharray:none;stroke-linecap:butt;stroke-dashoffset:0;stroke-linejoin:miter;stroke-miterlimit:4;fill:#010201;fill-rule:nonzero;opacity:1" vector-effect="non-scaling-stroke" transform="translate(512.21 356.04)" d="M0 0c2.456 2.316 3.136 3.14 3.322 6.483l.013 3.106.01 1.728c.012 1.92.016 3.838.02 5.757.006 1.373.012 2.747.02 4.12.02 4.519.03 9.037.04 13.556l.013 4.67c.02 7.32.033 14.639.042 21.958.01 8.437.036 16.874.076 25.311.03 6.527.045 13.054.049 19.58.002 3.895.01 7.79.036 11.685.023 3.67.027 7.34.017 11.011 0 1.341.006 2.682.02 4.022.089 9.175-.86 17.027-6.35 24.661-8.581 8.12-16.556 11.128-28.39 10.82-7.447-.535-14.247-4.366-19.313-9.78-4.866-6.56-6.569-13.52-5.438-21.625 2.01-6.707 5.311-12.787 11.403-16.442 8.88-4.577 13.688-4.558 24.597-4.558v-71c-12.318 3.52-24.595 7.039-36.812 10.874l-3.904 1.22c-3.096.965-6.19 1.934-9.283 2.906l-.005 1.611c-.037 12.98-.096 25.961-.18 38.941-.04 6.278-.072 12.555-.086 18.832-.014 5.476-.04 10.95-.084 16.426-.023 2.896-.036 5.79-.037 8.687-.003 3.243-.03 6.485-.063 9.729l.016 2.866c-.164 10.526-3.911 18.2-11.05 25.704-7.252 6.362-15.18 8.585-24.633 8.485-4.51-.44-7.988-2.034-11.879-4.281l-1.937-1.098c-5.622-3.575-8.97-8.625-11.063-14.903-.854-8.699-.203-15.704 5-23 4.688-5.637 10.944-8.387 18-10 10.276-.862 10.276-.862 14 1l-.01-1.716c-.09-13.797-.155-27.594-.197-41.39-.02-6.673-.048-13.345-.094-20.017-.04-5.816-.066-11.633-.075-17.45-.005-3.078-.017-6.157-.046-9.235-.033-3.44-.033-6.88-.032-10.32l-.043-3.08c.034-5.885.455-9.382 4.498-13.791 1.99-1.173 1.99-1.173 4.13-1.784l2.491-.75 2.722-.748 5.985-1.773 3.257-.943c3.566-1.038 7.108-2.143 10.649-3.26l1.875-.592 1.896-.598c4.516-1.425 9.04-2.823 13.566-4.22 3.328-1.026 6.654-2.058 9.977-3.102 3.283-1.031 6.57-2.05 9.86-3.059C-22.168.853-20.934.467-19.7.076c1.71-.54 3.424-1.065 5.14-1.586l2.935-.912C-7.003-3.269-3.856-2.656 0 0z"/><path style="stroke:none;stroke-width:1;stroke-dasharray:none;stroke-linecap:butt;stroke-dashoffset:0;stroke-linejoin:miter;stroke-miterlimit:4;fill:#010101;fill-rule:nonzero;opacity:1" vector-effect="non-scaling-stroke" transform="translate(388.52 120.85)" d="m0 0 1.862-.01c2.065-.008 4.13-.002 6.197.004l4.479-.012c4.108-.01 8.217-.008 12.326-.004 4.429.003 8.857-.006 13.286-.014C46.83-.048 55.508-.05 64.186-.048c7.053.002 14.105 0 21.157-.004l3.038-.002 6.11-.004c19.113-.01 38.225-.008 57.337-.002 17.495.005 34.99-.006 52.485-.025 17.952-.02 35.905-.028 53.858-.024 10.083.002 20.167 0 30.25-.015 8.584-.012 17.167-.013 25.751-.001 4.382.006 8.763.007 13.144-.005 4.009-.01 8.018-.008 12.026.006 1.453.003 2.905 0 4.357-.008 1.97-.01 3.94-.001 5.912.012h3.32c4.57.583 8.005 2.856 10.937 6.374 1.486 4.457 2.05 9.347.282 13.817-2.175 3.498-4.648 5.384-8.282 7.183-2.935.378-2.935.378-6.252.38l-1.864.015c-2.063.012-4.125.002-6.188-.007-1.493.004-2.986.01-4.48.016-4.104.015-8.208.01-12.313.003-4.426-.004-8.852.008-13.278.018-8.672.018-17.343.018-26.015.013-7.046-.004-14.093-.002-21.14.003l-3.038.002-6.108.005c-19.1.013-38.2.008-57.302-.003-17.48-.01-34.962.003-52.443.026-17.943.025-35.885.034-53.828.028-10.076-.004-20.152-.001-30.228.016-8.578.015-17.155.015-25.733-.002-4.377-.009-8.754-.01-13.132.005-4.006.013-8.012.009-12.019-.01a445 445 0 0 0-4.35.009c-1.971.013-3.94.002-5.91-.016h-3.318c-4.311-.705-7.674-2.59-10.303-6.211-1.482-3.899-2.446-7.076-1.758-11.29C-11.599 2.782-8.436.007 0 0z"/><path style="stroke:none;stroke-width:1;stroke-dasharray:none;stroke-linecap:butt;stroke-dashoffset:0;stroke-linejoin:miter;stroke-miterlimit:4;fill:#010101;fill-rule:nonzero;opacity:1" vector-effect="non-scaling-stroke" transform="translate(664.92 294.58)" d="M0 0a1150.783 1150.783 0 0 1 14.142-.02c3.609.01 7.217.001 10.826-.005 6.06-.008 12.118.002 18.178.021 6.997.022 13.994.015 20.99-.007 6.017-.018 12.033-.02 18.05-.01 3.59.006 7.179.007 10.768-.007 3.375-.011 6.75-.003 10.125.02 1.236.005 2.472.004 3.708-.005 11.667-.076 11.667-.076 16.693 4.53 3.052 4.476 3.951 8.71 3 14-1.9 4.548-4.654 6.73-9 9-2.628.38-2.628.38-5.496.388l-3.309.03-3.6-.013a1507.984 1507.984 0 0 1-14.154.032c-2.88-.004-5.761.002-8.641.009-6.797.014-13.593.012-20.39 0-7.004-.01-14.008.003-21.012.03-6.021.022-12.041.029-18.062.023-3.593-.003-7.186-.001-10.779.016-3.379.016-6.758.012-10.137-.007-1.238-.004-2.475 0-3.713.01-11.691.091-11.691.091-16.707-4.517-2.85-4.275-3.815-7.984-3-13 1.459-4.132 3.223-6.807 6.963-9.174C-9.972-.516-4.874-.035 0 0z"/><path style="stroke:none;stroke-width:1;stroke-dasharray:none;stroke-linecap:butt;stroke-dashoffset:0;stroke-linejoin:miter;stroke-miterlimit:4;fill:#010101;fill-rule:nonzero;opacity:1" vector-effect="non-scaling-stroke" transform="translate(657.73 523.84)" d="m0 0 3.28-.021 3.583.007 3.785-.015c3.424-.014 6.847-.014 10.27-.012C23.78-.04 26.64-.045 29.5-.049 36.25-.061 43-.061 49.749-.055c6.957.006 13.914-.006 20.872-.028 5.978-.017 11.956-.023 17.934-.02 3.568.002 7.136 0 10.705-.015 3.357-.012 6.714-.01 10.07.003 1.23.002 2.46 0 3.69-.009 11.568-.072 11.568-.072 16.642 3.385 2.756 2.977 4.231 6.512 4.438 10.562-.615 4.827-2.121 7.893-5.264 11.58-4.414 3.362-10.489 2.421-15.764 2.391a1172.064 1172.064 0 0 1-14.374.037c-2.925-.005-5.85.002-8.775.01-6.902.016-13.803.013-20.705-.004a3083.59 3083.59 0 0 0-21.34.031c-6.115.027-12.228.034-18.342.026-3.65-.005-7.298-.003-10.947.018-3.432.018-6.863.012-10.295-.013a267.917 267.917 0 0 0-3.77.012c-10.663.099-10.663.099-14.567-3.018-3.7-4.244-4.527-7.676-4.17-13.195.591-4.13 1.78-6.52 4.875-9.437C-6.151.294-3.718.008 0 0z"/><path style="stroke:none;stroke-width:1;stroke-dasharray:none;stroke-linecap:butt;stroke-dashoffset:0;stroke-linejoin:miter;stroke-miterlimit:4;fill:#050505;fill-rule:nonzero;opacity:1" vector-effect="non-scaling-stroke" transform="translate(656.86 358.84)" d="m0 0 3.36-.021 3.673.007 3.88-.015c3.507-.014 7.016-.014 10.524-.012 2.93.001 5.86-.004 8.79-.008 6.913-.012 13.825-.012 20.738-.006 7.129.006 14.258-.006 21.387-.028 6.123-.017 12.246-.023 18.37-.02 3.655.002 7.311 0 10.967-.015a1384.1 1384.1 0 0 1 10.315.003c1.26.002 2.521 0 3.782-.009 1.723-.01 3.446 0 5.17.01h2.92c3.2.45 5.063 1.484 7.665 3.375 3.017 4.473 3.974 8.638 3 14-1.724 3.936-4.333 6.753-8 9-2.987.995-4.97 1.132-8.09 1.147l-3.19.022-3.5.008-3.686.02c-4.036.02-8.072.031-12.108.041l-4.174.012c-6.538.02-13.077.034-19.615.042-7.538.01-15.075.036-22.612.076-5.832.03-11.664.045-17.496.049-3.48.002-6.96.011-10.44.036-3.277.024-6.554.028-9.832.017-1.766 0-3.532.019-5.298.038-6.417-.041-11.692-.573-16.959-4.508-2.784-3.83-3.542-7.328-3.355-11.973.605-3.452 2.047-6.392 4.355-9.027C-6.239.27-3.753.008 0 0z"/><path style="stroke:none;stroke-width:1;stroke-dasharray:none;stroke-linecap:butt;stroke-dashoffset:0;stroke-linejoin:miter;stroke-miterlimit:4;fill:#020202;fill-rule:nonzero;opacity:1" vector-effect="non-scaling-stroke" transform="translate(657.66 460.96)" d="m0 0 3.305-.017 3.627-.004c1.274-.004 2.547-.01 3.82-.015 3.458-.013 6.917-.02 10.376-.024L27.61-.07c6.762-.014 13.525-.024 20.287-.027 7.805-.005 15.61-.022 23.415-.051 6.034-.022 12.068-.032 18.102-.033 3.603-.002 7.207-.007 10.81-.025 3.39-.017 6.78-.019 10.17-.01 1.243 0 2.485-.004 3.728-.014 1.7-.012 3.399-.005 5.098.004l2.88-.004c4.053.571 6.716 2.32 9.387 5.371 2.59 4.144 2.887 8.257 2.25 13-1.599 4.093-3.983 6.425-7.96 8.352-4.616 1.466-9.578 1.072-14.376 1.052a1458.987 1458.987 0 0 1-13.922.032c-2.833-.003-5.666.003-8.5.01-6.684.013-13.368.012-20.053 0-6.888-.011-13.776.003-20.664.03-5.923.022-11.846.029-17.769.023-3.533-.004-7.067-.001-10.6.016-3.323.016-6.645.012-9.968-.007-1.217-.004-2.433 0-3.65.01-8.21.065-12.31-.58-18.35-6.205-2.063-4.015-2.917-8.713-1.68-13.125 1.345-2.834 3.033-5.241 5.492-7.188C-5.226.128-3.177.01 0 0z"/><path style="stroke:none;stroke-width:1;stroke-dasharray:none;stroke-linecap:butt;stroke-dashoffset:0;stroke-linejoin:miter;stroke-miterlimit:4;fill:#f5f4f4;fill-rule:nonzero;opacity:1" vector-effect="non-scaling-stroke" transform="translate(575.4 325.1)" d="M0 0h5v294h-143c10.888-7.259 29.054-8.37 42-10.313l3.172-.481c13.399-1.894 26.793-2.259 40.308-2.417l1.802-.022c5.567-.067 11.134-.131 16.7-.168 3.08-.021 6.16-.057 9.24-.101 1.717-.02 3.433-.026 5.149-.031 5.681-.09 9.86-.246 14.629-3.467 3.273-3.612 4.123-6.79 4.139-11.586l.016-2.868.003-3.157.015-3.349c.014-3.072.021-6.143.028-9.215.008-3.31.021-6.621.034-9.932.022-5.738.04-11.475.056-17.213.023-8.296.05-16.591.08-24.887.048-13.459.091-26.917.132-40.376.039-13.075.08-26.15.125-39.225l.008-2.442.041-12.126C-.209 67.083-.103 33.542 0 0z"/><path style="stroke:none;stroke-width:1;stroke-dasharray:none;stroke-linecap:butt;stroke-dashoffset:0;stroke-linejoin:miter;stroke-miterlimit:4;fill:#f6f6f5;fill-rule:nonzero;opacity:1" vector-effect="non-scaling-stroke" transform="translate(157.4 325.1)" d="M0 0h4l.003 1.695a92637.849 92637.849 0 0 0 .26 111.458l.006 2.404c.035 12.836.06 25.672.081 38.509.022 13.175.055 26.35.099 39.524.026 8.128.044 16.255.05 24.382.006 5.576.022 11.152.047 16.728.014 3.215.023 6.43.019 9.645-.004 3.492.015 6.983.036 10.474l-.014 3.057c.071 7.133.839 13.907 5.413 19.624 3.183 2.388 5.861 2.628 9.714 2.658l2.915.031 3.168.022 6.739.079 1.773.02c35.947.405 70.977 2.436 105.691 12.69v1H0V0z"/><path style="stroke:none;stroke-width:1;stroke-dasharray:none;stroke-linecap:butt;stroke-dashoffset:0;stroke-linejoin:miter;stroke-miterlimit:4;fill:#020201;fill-rule:nonzero;opacity:1" vector-effect="non-scaling-stroke" transform="translate(660.29 587.81)" d="m0 0 2.396-.02c2.612-.02 5.223-.023 7.835-.025l5.455-.02C19.497-.079 23.31-.082 27.12-.08c4.878 0 9.756-.027 14.634-.062 3.756-.022 7.511-.026 11.267-.025 1.798-.002 3.597-.011 5.395-.027 2.518-.02 5.035-.013 7.553-.001l2.239-.034c5.186.062 7.875 1.227 11.906 4.52 3.348 4.536 3.342 8.136 2.578 13.66-.991 4.012-2.766 6.119-6.222 8.446-3.416 1.295-6.617 1.188-10.242 1.184l-2.397.02c-2.611.02-5.223.023-7.834.025l-5.456.02c-3.81.013-7.622.016-11.434.015-4.878 0-9.755.027-14.633.062-3.756.022-7.512.026-11.268.025-1.798.002-3.596.011-5.394.027-2.518.02-5.035.013-7.553.001l-2.24.034c-5.18-.062-7.86-1.262-11.905-4.52-2.769-3.48-3.227-7.277-2.938-11.624.64-4.077 1.882-6.495 4.938-9.375C-8.12-.255-4.384-.005 0 0z"/><path style="stroke:none;stroke-width:1;stroke-dasharray:none;stroke-linecap:butt;stroke-dashoffset:0;stroke-linejoin:miter;stroke-miterlimit:4;fill:#050404;fill-rule:nonzero;opacity:1" vector-effect="non-scaling-stroke" transform="translate(296.58 118.79)" d="M0 0c4.25 2.314 6.638 4.964 8.813 9.313.6 5.93.805 11.517-2.688 16.562-3.214 3.52-6.261 5.148-11 5.816-4.858.205-9.161.207-13.031-2.988-3.673-3.986-6.547-7.957-6.782-13.515.438-5.74 2.761-9.415 7-13.188C-12.21-2.576-6.348-2.937 0 0z"/><path style="stroke:none;stroke-width:1;stroke-dasharray:none;stroke-linecap:butt;stroke-dashoffset:0;stroke-linejoin:miter;stroke-miterlimit:4;fill:#040403;fill-rule:nonzero;opacity:1" vector-effect="non-scaling-stroke" transform="translate(232.78 119.91)" d="M0 0c3.976 3.314 6.3 6.138 6.863 11.422.174 5.88-.223 10.26-4.238 14.765-4.534 4.152-9.428 4.625-15.414 4.387-5.052-.755-7.499-3.182-10.899-6.949-2.985-4.313-3.33-8.356-2.687-13.438 1.866-5.896 4.551-9.162 10-12C-10.943-3.542-4.861-3.087 0 0z"/><path style="stroke:none;stroke-width:1;stroke-dasharray:none;stroke-linecap:butt;stroke-dashoffset:0;stroke-linejoin:miter;stroke-miterlimit:4;fill:#040303;fill-rule:nonzero;opacity:1" vector-effect="non-scaling-stroke" transform="translate(163.96 118.16)" d="M0 0c4.13 1.948 6.907 5.2 9.438 8.938 1.745 5.237 1.606 9.23-.688 14.187-2.522 4.615-5.242 7.122-10.313 8.813-5.729.61-10.668.573-15.527-2.758-3.717-3.136-5.216-5.32-5.851-10.086-.38-9.904-.38-9.904 2.984-13.91C-13.644-.458-8.301-2.894 0 0z"/></svg>