<?xml version="1.0" encoding="UTF-8" standalone="no"?>
<!DOCTYPE svg PUBLIC "-//W3C//DTD SVG 1.1//EN" "http://www.w3.org/Graphics/SVG/1.1/DTD/svg11.dtd">
<svg width="100%" height="100%" viewBox="0 0 1524 1293" version="1.1" xmlns="http://www.w3.org/2000/svg" xmlns:xlink="http://www.w3.org/1999/xlink" xml:space="preserve" xmlns:serif="http://www.serif.com/" style="fill-rule:evenodd;clip-rule:evenodd;stroke-linejoin:round;stroke-miterlimit:2;">
    <g transform="matrix(1,0,0,1,-215.056041,-358.863897)">
        <g id="Background" transform="matrix(1.566406,0,0,1.566406,213,356)">
            <path d="M450.72,680.418C458.218,687.757 492.056,701.472 522.126,676.056C531.36,668.251 534.973,656.463 535.568,654.521C542.087,633.25 539.572,628.159 538.41,615.511C537.067,600.909 531.793,585.693 530.045,571.554C529.964,570.901 529.145,571.144 528.045,563.581C527.518,559.961 526.697,560.253 526.234,556.554C525.657,551.951 502.779,563.991 471.592,558.161C465.589,557.039 465.489,557.906 459.572,556.255C458.451,555.942 458.407,556.201 445.453,552.742C437.398,550.592 413.138,540.148 396.786,524.208C369.771,497.873 361.568,471.051 357.465,456.51C352.62,439.343 352.936,417.88 352.985,414.5C353.822,357.493 382.161,320.711 397.88,297.819C402.407,291.225 433.714,255.519 439.219,251.149C439.507,250.921 449.606,240.44 450.506,239.505C452.72,237.208 451.318,236.644 445.273,209.541C428.235,133.146 435.617,111.984 436.232,100.48C436.284,99.506 436.749,99.625 438.303,88.466C438.353,88.107 440.334,82.503 441.379,75.48C442.297,69.307 453.547,47.971 454.767,45.658C461.327,33.216 481.231,14.431 493.494,9.488C511.041,2.417 520.51,-1.301 544.56,5.187C564.672,10.613 574.652,30.626 576.172,33.672C582.388,46.137 582.184,47.42 595.444,51.644C604.364,54.485 620.351,64.599 624.004,73.708C625.197,76.682 615.608,74.142 605.458,77.37C600.744,78.869 566.121,80.333 556.184,124.414C555.987,125.288 556.203,125.318 554.223,135.435C553.467,139.304 554.063,146.347 551.234,157.423C550.667,159.644 551.914,159.875 545.38,185.467C540.472,204.687 520.839,241.703 510.812,251.82C509.329,253.317 509.719,253.611 494.197,272.268C486.529,281.485 482.789,281.078 483.856,287.428C483.94,287.925 490.084,311.903 490.929,318.439C491.161,320.228 491.76,320.061 495.963,340.414C496.803,344.479 497.114,344.35 497.914,348.411C499.457,356.248 502.95,351.84 513.506,352.086C520.658,352.253 527.367,350.732 547.39,357.77C614.908,381.503 632.846,474.241 576.564,527.569C555.597,547.435 542.717,545.848 543.936,552.413C544.612,556.05 546.386,562.593 546.624,563.472C548.764,571.367 547.497,571.581 549.978,579.371C551.782,585.033 555.637,607.624 557.649,617.476C558.45,621.398 559.58,651.953 550.112,668.214C549.05,670.039 541.863,684.184 533.79,689.908C529.815,692.727 530.588,693.713 524.699,696.879C521.355,698.678 502.4,708.87 478.49,707.737C474.077,707.528 455.122,703.826 451.368,701.799C450.974,701.586 447.667,700.685 439.347,695.775C404.39,675.145 400.031,624.041 432.296,606.105C456.235,592.797 483.876,609.412 486.941,630.443C487.221,632.364 491.934,639.817 485.006,657.319C481.647,665.804 470.08,676.226 459.562,677.909C452.222,679.084 452.147,678.586 451.654,678.992C451.216,679.353 451.159,680.057 450.72,680.418ZM467.209,301.634C471.103,318.863 470.69,318.889 474.846,333.396C475.455,335.522 477.672,348.029 479.843,355.389C481.62,361.417 477.067,359.987 472.412,363.378C471.595,363.973 467.169,365.786 457.614,373.641C419.603,404.889 416.511,461.394 451.368,492.647C455.579,496.422 461.664,499.772 462.617,500.296C463.125,500.576 463.018,500.728 468.826,504.034C477.683,509.076 484.819,507.308 479.421,500.572C476.235,496.595 443.955,471.805 457.184,436.379C463.821,418.607 476.776,410.507 479.156,409.019C484.878,405.442 490.272,399.4 491.459,405.51C491.882,407.69 499.612,438.414 500.293,443.535C500.59,445.769 507.66,472.66 508.352,478.524C508.43,479.18 508.58,479.042 510.366,486.53C512.72,496.405 513.382,498.414 513.715,499.427C515.014,503.371 514.449,503.441 515.79,507.405C516.157,508.49 514.959,508.661 518.839,521.39C519.953,525.045 521.611,535.247 521.808,536.46C522.004,537.662 522.267,539.284 507.561,541.803C506.626,541.963 483.372,543.593 472.549,541.125C461.873,538.692 461.861,539.081 451.475,535.563C422.053,525.599 407.711,504.677 405.091,500.854C403.205,498.103 361.037,442.183 409.09,366.186C430.124,332.92 447.877,319.618 463.149,304.154C465.397,301.878 465.195,300.704 467.209,301.634ZM529.491,27.943C557.11,30.963 562.878,53.248 566.749,57.247C574.85,65.616 589.923,64.313 579.57,66.643C569.393,68.934 555.648,78.962 551.142,85.244C551.041,85.386 547.816,88.043 542.681,97.592C534.439,112.921 533.232,139.079 515.667,168.622C512.568,173.833 508.918,178.51 508.278,179.331C501.702,187.756 501.551,187.499 494.462,195.466C490.564,199.846 484.454,207.548 473.618,217.619C473.417,217.806 468.228,224.643 467.83,220.439C467.44,216.319 457.626,183.023 457.002,156.528C456.97,155.153 455.63,147.584 455.918,135.517C455.951,134.157 456.324,134.19 456.966,118.534C457.006,117.563 457.977,117.798 458.929,106.542C459.118,104.299 462.29,92.726 462.617,91.533C468.957,68.396 484.085,43.63 505.491,33.484C515.17,28.897 515.182,28.505 529.491,27.943ZM576.049,451.547C576.263,455.061 579.688,471.095 572.592,489.533C572.382,490.078 570.624,494.646 570.173,496.43C567.008,508.967 540.656,533.983 538.951,530.24C537.765,527.636 536.742,519.429 536.623,518.477C536.426,516.889 534.753,510.199 534.573,509.484C526.003,475.218 515.877,424.087 512.19,412.601C511.964,411.898 512.545,411.786 510.144,403.601C508.325,397.401 512.086,398.748 518.497,398.818C530.555,398.949 552.247,405.686 565.988,427.176C573.886,439.528 572.342,440.978 576.049,451.547Z" style="fill:#000000;fill-opacity:1;"/>
            <path d="M841.5,789.933C817.809,790.165 553.264,789.49 551.383,790.236C548.079,791.547 544.588,808.217 517.675,820.904C507.294,825.797 467.342,837.277 435.755,806.235C423.733,794.42 426.696,790.095 420.501,789.915C411.665,789.657 61.7,789.893 30.5,789.914C10.725,789.928 3.786,793.963 1.369,780.515C0.559,776.01 8.717,760.46 11.376,751.466C12.048,749.194 48.529,661.713 58.407,636.458C59.884,632.681 60.429,632.955 77.826,589.626C90.846,557.198 93.89,552.587 95.328,546.46C96.025,543.492 96.745,543.788 110.285,511.412C112.965,505.002 117.599,484.482 130.556,487.269C134.126,488.037 137.274,495.488 135.328,499.421C133.811,502.488 24.803,769.32 24.83,769.494C25.229,772.028 26.802,770.702 201.501,770.822C206.07,770.825 394.133,770.739 400.472,770.915C426.296,771.633 432.901,767.401 438.261,777.625C448.79,797.711 459.088,803.538 479.436,807.806C491.173,810.267 516.227,804.39 525.345,793.358C538.358,777.614 535.094,774.814 539.56,772.598C543.535,770.626 543.804,770.914 693.501,770.809C807.511,770.728 949.238,771.012 949.627,770.644C951.345,769.017 938.066,743.14 936.105,735.587C935.628,733.749 934.748,734.167 927.027,713.661C926.347,711.853 926.173,711.961 917.737,691.378C916.766,689.009 906.866,664.855 906.061,661.59C905.66,659.965 904.731,660.401 897.629,642.441C895.714,637.597 875.272,585.903 872.996,582.171C871.314,579.414 872.195,579.056 858.042,544.675C841.469,504.417 835.193,493.956 841.53,488.535C845.916,484.782 853.682,488.964 855.604,492.435C869.224,517.033 870.328,529.259 875.053,536.769C875.834,538.01 874.733,538.482 882.103,553.693C883.142,555.838 886.525,566.375 901.47,601.513C902.7,604.404 963.93,754.908 966.871,760.322C971.074,768.059 973.159,777.913 973.494,779.501C975.203,787.579 967.51,789.481 966.551,789.718C962.741,790.66 962.683,789.653 917.501,789.929C879.439,790.162 879.538,789.909 841.5,789.933Z" style="fill:#000000;fill-opacity:1;"/>
            <path d="M933.016,41.771C932.569,41.954 932.022,41.433 931.575,41.616C930.783,41.938 931.1,42.205 927.254,51.387C916.824,76.289 910.253,82.141 905.959,88.776C893.26,108.395 881.106,118.236 873.819,125.79C865.175,134.752 854.289,143.104 852.489,144.485C834.662,158.161 834.159,157.449 832.649,158.685C829.818,161.005 829.498,160.393 826.597,162.624C803.15,180.658 705.941,225.064 703.646,226.709C702.944,227.213 700.274,229.127 694.336,232.208C673.634,242.95 651.68,261.189 650.369,262.365C635.841,275.389 635.859,275.332 623.104,290.151C599.68,317.366 591.838,350.649 589.541,350.841C586.789,351.071 577.847,343.822 576.927,343.075C576.131,342.43 575.586,341.988 579.639,330.558C580.022,329.478 582.402,322.767 585.188,317.354C599.396,289.753 625.417,242.683 720.58,198.656C741.905,188.79 741.623,188.285 743.525,187.549C759.185,181.492 808.15,155.058 812.228,151.213C817.484,146.255 868.523,120.125 902.113,63.292C925.921,23.01 919.094,12.596 926.536,9.576C937.811,5.001 943.899,25.388 948.25,38.593C956.416,63.372 958.659,74.711 957.087,97.471C954.944,128.482 947.797,143.826 939.249,162.388C925.705,191.8 900.345,216.591 917.619,201.7C924.798,195.511 926.006,197.049 943.804,179.818C951.674,172.199 959.775,177.488 959.682,185.496C959.506,200.641 955.285,218.699 954.622,221.533C951.216,236.107 942.514,257.688 940.073,261.179C939.843,261.508 938.11,263.986 937.386,265.424C936.197,267.785 929.901,280.286 918.675,292.656C909.153,303.148 908.731,302.711 906.768,304.772C892.337,319.922 881.317,325.17 876.637,328.685C866.602,336.224 865.614,334.192 864.827,334.914C860.994,338.432 866.376,335.819 871.502,335.33C879.995,334.521 883.253,332.704 889.442,331.278C896.698,329.608 902.469,335.932 898.832,343.647C889.496,363.45 875.248,379.013 872.754,381.736C841.421,415.96 793.785,427.338 763.384,436.148C722.107,448.111 695.749,448.256 655.259,473.076C652.824,474.568 639.67,482.632 627.392,495.374C625.614,497.219 624.382,495.961 625.281,494.426C626.679,492.036 626.61,492.093 627.559,489.525C628.171,487.866 632.647,475.746 634.224,468.44C635.267,463.609 665.473,446.053 682.437,440.341C707.705,431.834 707.425,431.022 733.495,425.48C771.508,417.4 805.878,405.623 813.285,402.055C825.572,396.136 825.416,395.971 826.486,395.474C855.245,382.089 875.951,354.237 875.697,351.421C875.587,350.199 874.933,351.282 860.434,353.041C851.903,354.076 852.047,354.726 843.515,354.913C838.973,355.013 837.04,355.681 836.516,355.707C829.587,356.052 816.697,357.536 813.907,351.318C809.862,342.304 819.361,339.453 829.698,334.943C834.17,332.992 862.313,320.714 882.717,304.793C888.102,300.591 887.547,300.072 892.92,295.966C905.44,286.399 924.368,259.449 929.483,246.492C930.678,243.464 939.328,221.553 941.07,207.48C941.965,200.245 938.07,206.359 937.143,207.027C925.921,215.117 925.779,214.88 924.801,215.81C917.459,222.795 882.091,240.498 875.546,241.723C866.972,243.328 867.071,234.427 867.081,233.482C867.099,231.866 867.115,230.484 879.759,217.76C884.932,212.554 915.919,181.371 930.946,141.639C938.032,122.902 936.516,122.536 937.945,118.665C943.178,104.489 941.215,72.021 938.867,63.392C938.397,61.663 933.895,45.119 933.016,41.771Z" style="fill:#000000;fill-opacity:1;"/>
            <path d="M130.492,354.948C110.098,354.597 103.55,350.139 99.572,350.824C93.341,351.897 125.418,385.271 143.398,393.698C160.94,401.921 160.819,402.131 162.381,402.758C229.162,429.549 274.291,423.79 328.791,459.024C330.349,460.031 332.883,458.217 338.437,473.526C344.669,490.707 347.889,492.235 346.385,493.303C345.151,494.179 342.774,489.505 333.836,483.075C307.888,464.412 301.796,462.689 285.52,456.449C257.132,445.564 195.297,433.389 188.688,430.097C181.171,426.354 169.927,425.083 144.349,412.834C96.702,390.017 80.31,351.704 77.362,347.593C69.972,337.289 76.237,327.337 89.487,332.535C97.191,335.558 97.588,333.837 105.559,336.169C121.834,340.931 101.761,332.735 82.807,318.103C79.099,315.24 57.466,298.539 42.819,275.313C21.037,240.771 19.39,218.243 17.243,208.556C16.436,204.914 14.907,189.898 14.944,186.499C15.106,171.833 26.527,176.106 29.314,178.704C36.833,185.715 36.051,186.509 58.549,203.401C58.719,203.528 68.108,209.984 61.125,202.754C48.998,190.197 29.397,156.509 21.336,125.535C19.295,117.692 8.363,75.688 30.892,24.68C36.417,12.171 38.387,7.509 46.549,9.269C53.059,10.673 55.511,30.744 60.963,42.296C79.8,82.215 84.777,82.409 96.107,96.884C109.271,113.703 147.326,142.414 154.775,147.044C214.428,184.126 266.552,203.76 274.675,209.216C278.343,211.68 291.823,218.974 293.332,219.791C327.03,238.025 359.248,269.978 364.199,278.666C368.179,285.652 377.929,290.2 371.678,297.639C368.982,300.848 365.862,309.116 362.927,305.12C350.29,287.919 328.852,252.161 236.59,210.323C234.829,209.524 218.17,201.97 214.658,200.151C200.777,192.96 200.861,192.819 199.615,192.278C194.247,189.949 194.552,189.495 189.295,186.995C162.577,174.29 118.262,143.389 104.416,129.588C94.843,120.045 69.109,97.583 52.704,63.401C43.527,44.278 42.968,35.671 41.435,42.466C40.538,46.441 29.843,73.631 33.667,100.479C34.968,109.613 32.999,110.031 40.637,133.458C49.054,159.274 61.471,176.188 63.893,180.274C74.276,197.791 102.263,225.668 102.791,226.156C113.407,235.97 105.808,241.916 100.491,241.913C92.299,241.91 61.765,223.955 55.797,220.125C33.689,205.94 33.679,202.548 32.763,204.574C32.685,204.745 36.855,224.565 37.22,225.603C37.783,227.201 43.043,242.139 44.547,245.477C72.107,306.621 130.25,328.895 151.403,337.707C168.774,344.944 160.569,355.74 151.494,356.024C139.389,356.403 132.153,355.22 130.492,354.948Z" style="fill:#000000;fill-opacity:1;"/>
            <path d="M762.501,640.069C783.202,640.143 784.512,640.05 810.531,642.201C850.081,645.471 852.937,650.84 851.994,647.63C848.185,634.658 823.169,575.522 819.029,564.678C815.423,555.23 809.136,541.877 803.741,526.412C802.4,522.569 790.522,495.778 789.145,490.582C788.97,489.923 788.802,489.993 786.052,482.64C783.521,475.872 769.744,452.083 786.52,453.125C795.627,453.69 796.631,459.265 808.948,490.312C811.063,495.644 813.951,502.925 836.208,556.622C851.295,593.025 857.426,610.542 861.122,617.69C862.949,621.225 871.34,643.376 872.192,645.624C876.29,656.441 882.381,665.395 874.303,670.163C866.906,674.528 859.69,665.928 818.48,661.703C809.428,660.775 809.555,660.029 800.489,659.836C790.469,659.621 790.602,658.697 780.504,658.796C778.024,658.821 778.039,658.478 749.501,658.595C700.937,658.794 639.17,676.528 616.341,688.171C610.683,691.056 566.037,704.806 502.184,767.16C495.872,773.323 498.967,751.606 508.391,741.402C509.16,740.568 508.848,740.363 517.738,730.734C519.402,728.933 543.159,706.97 560.287,697.105C579.929,685.793 581.699,679.987 636.356,660.082C696.303,638.252 758.153,640.081 762.501,640.069Z" style="fill:#000000;fill-opacity:1;"/>
            <path d="M236.494,658.935C227.466,658.733 227.563,658.758 218.499,658.735C194.527,658.674 194.575,658.828 192.495,658.793C165.616,658.348 124.493,666.199 113.38,670.084C102.943,673.733 95.362,668.849 96.422,662.492C97.983,653.123 98.978,653.491 104.009,641.301C109.852,627.147 109.24,626.911 109.938,625.78C111.783,622.785 129.171,578.697 129.713,577.602C130.49,576.031 131.306,574.384 138.019,557.33C145.6,538.073 146.105,538.294 146.753,536.617C171.376,472.859 173.551,473.758 177.379,461.453C179.381,455.013 188.749,449.885 194.231,454.801C199.818,459.811 195.328,466.203 192.295,474.404C191.821,475.685 187.283,487.953 186.109,490.308C182.574,497.396 178.842,506.928 178.267,508.396C154.129,570.051 120.702,646.894 122.686,648.122C123.411,648.571 135.471,646.024 136.573,645.792C153.399,642.238 157.733,643.679 161.572,642.799C171.28,640.574 184.665,641.149 186.576,640.871C189.659,640.423 199.765,638.955 225.516,640.128C258.182,641.615 271.511,644.135 272.531,644.206C283.271,644.961 323.002,654.585 336.468,659.581C361.455,668.852 361.48,668.746 363.394,669.725C383.797,680.16 406.263,686.272 447.211,722.808C457.456,731.95 456.487,732.78 465.625,742.388C475.332,752.595 474.962,764.508 474.897,766.579C474.658,774.27 471.266,763.917 431.372,731.659C420.679,723.013 420.329,723.567 411.306,716.788C404.306,711.528 403.985,712.109 403.412,711.618C399.075,707.905 380.03,698.247 379.793,698.107C362.304,687.783 327.741,675.939 319.444,673.778C317.773,673.343 298.726,668.384 298.564,668.324C295.088,667.046 295.005,667.572 291.469,666.639C282.991,664.403 276.424,664.017 271.434,662.881C263.716,661.124 262.114,661.921 260.484,661.595C248.566,659.209 248.459,660.78 236.494,658.935Z" style="fill:#000000;fill-opacity:1;"/>
            <path d="M825.539,696.044C842.881,697.073 895.203,708.202 899.05,713.886C902.769,719.381 903.659,720.358 899.346,725.375C894.365,731.171 887.587,727.299 880.44,725.821C867.929,723.233 868.21,722.488 855.591,720.065C839.522,716.979 838.925,716.922 837.458,716.783C836.588,716.7 798.423,707.347 739.505,708.714C697.079,709.698 661.45,717.862 656.569,718.872C648.913,720.456 649.054,720.685 628.635,725.934C604.927,732.029 605.25,732.753 582.479,741.452C577.82,743.232 577.657,742.56 567.468,746.408C567.104,746.545 554.831,748.593 565.247,742.089C566.757,741.146 572.095,737.174 572.683,736.737C573.971,735.778 574.164,736.134 590.334,727.189C606.821,718.07 662.939,698.086 692.463,696.054C699.006,695.604 698.804,694.299 707.481,694.011C711.045,693.892 712.79,692.248 728.474,691.957C738.534,691.771 742.868,688.44 786.514,691.309C790.197,691.551 810.263,693.961 815.518,694.173C818.712,694.301 824.749,695.842 825.539,696.044Z" style="fill:#000000;fill-opacity:1;"/>
            <path d="M227.498,707.957C211.604,708.149 166.93,711.791 164.444,712.166C160.67,712.736 132.675,716.963 117.42,720.229C105.379,722.808 105.559,723.351 104.516,723.571C103.223,723.843 90.53,726.52 88.401,727.162C71.043,732.394 71.028,718.452 74.912,713.869C79.663,708.262 153.332,689.797 221.503,690.259C253.151,690.473 301.051,698.724 303.462,699.61C310.709,702.272 310.839,701.392 311.458,701.621C314.924,702.906 315.016,702.364 318.52,703.441C320.282,703.982 339.508,709.892 340.565,710.119C351.031,712.367 391.721,729.606 401.56,737.421C402.622,738.264 412.445,745.509 412.451,745.523C414.323,749.75 397.883,743.006 397.435,742.917C390.142,741.453 380.438,736.627 373.615,734.205C351.665,726.415 325.668,720.704 321.439,719.775C306.811,716.561 306.76,716.835 305.524,716.429C300.126,714.652 295.814,714.737 295.47,714.66C277.877,710.718 277.582,713.057 270.55,711.296C262.54,709.289 253.325,709.903 250.545,709.325C247.028,708.594 237.763,709.09 227.498,707.957Z" style="fill:#000000;fill-opacity:1;"/>
            <path d="M809.487,191.055C813.268,191.344 813.756,191.233 815.061,194.701C815.886,196.892 817.759,201.87 833.813,217.165C850.715,233.266 840.538,252.492 837.679,255.653C829.257,264.963 833.887,250.555 834.038,248.472C834.837,237.472 831.422,233.479 829.029,229.816C826.055,225.263 816.991,221.21 816.515,221.182C813.373,220.997 815.529,223.232 815.044,260.501C814.573,296.798 816.714,298.041 808.84,307.765C798.441,320.608 771.909,320.628 773.045,299.467C773.147,297.578 773.665,287.918 788.555,281.615C796.121,278.413 796.325,279.282 804.497,279.421C806.474,279.455 806.097,273.98 806.088,265.501C806.063,240.939 805.991,241.044 805.997,216.5C806.003,193.641 805.119,191.862 809.487,191.055Z" style="fill:#000000;fill-opacity:1;"/>
            <path d="M210.047,333.5C209.961,329.716 209.832,260.215 210.155,251.459C210.296,247.644 217.386,248.544 218.472,251.514C221.982,261.114 223.474,261.694 234.517,271.481C259.267,293.42 242.206,317.196 238.467,316.669C233.98,316.037 240.581,313.12 238.16,296.561C236.848,287.592 222.099,276.436 219.407,279.424C218.535,280.393 219.373,355.129 218.618,358.526C214.985,374.88 190.704,382.086 181.563,371.444C167.45,355.016 190.873,337.274 206.527,339.31C210.834,339.87 210.032,337.84 210.047,333.5Z" style="fill:#000000;fill-opacity:1;"/>
        </g>
    </g>
</svg>
